{"title":"All good things (Come to an end) - Nelly Furtado live The Loose","uid":4241910,"size":283353860,"categoryP":"video","categoryS":"music_videos","magnet":"?xt=urn:btih:cf2a64e0126e5d1e9d578f276a0e9b418c773804&amp;dn=All+good+things+%28Come+to+an+end%29+-+Nelly+Furtado+live+The+Loose+&amp;tr=udp%3A%2F%2Ftracker.openbittorrent.com%3A80&amp;tr=udp%3A%2F%2Fopen.demonii.com%3A1337&amp;tr=udp%3A%2F%2Ftracker.coppersurfer.tk%3A6969&amp;tr=udp%3A%2F%2Fexodus.desync.com%3A6969","seeders":0,"leechers":1,"uploader":"leminhha93","files":1,"time":1213589659,"description":"General\nComplete name                    : E:\\Music Video\\Live\\All good things - Nelly Furtado live The Loose Tour.avi\nFormat                           : AVI\nFormat/Info                      : Audio Video Interleave\nFile size                        : 270 MiB\nDuration                         : 4mn 39s\nOveral bit rate                  : 8099 Kbps\nFFmpeg2.40b((51&lt;&lt;16)+(6&lt;&lt;8)+0)\n\nVideo\nFormat                           : MPEG-4 Visual\nFormat profile                   : Simple Streaming Video@L1\nFormat settings, BVOP            : Yes\nFormat settings, QPel            : No\nFormat settings, GMC             : No warppoints\nFormat settings, Matrix          : Default\nCodec ID                         : divx\nCodec ID/Info                    : Mainly used by Google\nCodec ID/Hint                    : DivX\nDuration                         : 4mn 39s\nBit rate                         : 7910 Kbps\nWidth                            : 1280 pixels\nHeight                           : 720 pixels\nDisplay aspect ratio             : 16/9\nFrame rate                       : 23.000 fps\nResolution                       : 8 bits\nColorimetry                      : 4:2:0\nScan type                        : Progressive\nBits/(Pixel*Frame)               : 0.373\nStream size                      : 263 MiB\nWriting library                  : Lavc50.0.0\n\nAudio\nFormat                           : MPEG Audio\nFormat version                   : Version 1\nFormat profile                   : Layer 3\nCodec ID                         : 55\nCodec ID/Hint                    : MP3\nDuration                         : 4mn 39s\nBit rate mode                    : Constant\nBit rate                         : 192 Kbps\nChannel(s)                       : 2 channels\nSampling rate                    : 44.1 KHz\nResolution                       : 16 bits\nStream size                      : 6.41 MiB\n\nThe performance really was great. I love Nelly!\n\n\n\n","torrent":{"xt":"urn:btih:cf2a64e0126e5d1e9d578f276a0e9b418c773804","amp;dn":"All+good+things+%28Come+to+an+end%29+-+Nelly+Furtado+live+The+Loose+","amp;tr":["udp%3A%2F%2Ftracker.openbittorrent.com%3A80","udp%3A%2F%2Fopen.demonii.com%3A1337","udp%3A%2F%2Ftracker.coppersurfer.tk%3A6969","udp%3A%2F%2Fexodus.desync.com%3A6969"],"infoHash":"cf2a64e0126e5d1e9d578f276a0e9b418c773804","infoHashBuffer":{"type":"Buffer","data":[207,42,100,224,18,110,93,30,157,87,143,39,106,14,155,65,140,119,56,4]},"announce":[],"urlList":[]}}